<?xml version="1.0" standalone="no"?>
<!DOCTYPE svg PUBLIC "-//W3C//DTD SVG 20010904//EN"
 "http://www.w3.org/TR/2001/REC-SVG-20010904/DTD/svg10.dtd">
<svg version="1.0" xmlns="http://www.w3.org/2000/svg"
 width="1860.000000pt" height="2631.000000pt" viewBox="0 0 1860.000000 2631.000000"
 preserveAspectRatio="xMidYMid meet">

<g transform="translate(0.000000,2631.000000) scale(0.100000,-0.100000)"
fill="#000000" stroke="none">
<path d="M14675 15574 c-1259 -7 -3689 -19 -5400 -28 -3231 -17 -5858 -31
-7952 -42 -874 -5 -1225 -10 -1232 -18 -5 -6 -3 -1030 4 -2470 11 -2013 16
-2461 27 -2472 11 -10 688 -9 3633 6 7251 38 9573 50 11755 60 1224 6 2420 13
2658 16 l432 6 -1 2407 c-1 1323 -4 2438 -8 2476 l-6 70 -810 1 c-445 1 -1840
-5 -3100 -12z m-12221 -447 c21 -15 19 -35 -9 -147 -40 -157 -59 -231 -81
-327 -13 -56 -32 -119 -42 -140 -11 -21 -29 -85 -42 -143 -12 -57 -50 -197
-85 -311 -70 -227 -92 -317 -82 -342 9 -25 44 -21 52 6 29 96 262 432 383 551
49 48 103 106 118 127 16 21 37 41 46 44 9 3 60 37 113 75 113 80 414 232 500
253 33 8 113 31 178 51 145 44 265 66 365 66 99 0 87 -13 -68 -70 -163 -61
-222 -89 -341 -161 -170 -103 -274 -175 -310 -217 -19 -21 -60 -55 -91 -76
-131 -86 -295 -310 -436 -596 l-101 -205 -52 -225 c-51 -221 -52 -228 -51
-380 1 -85 6 -189 11 -230 39 -296 62 -380 163 -585 84 -172 124 -230 242
-353 127 -131 196 -183 368 -273 149 -78 171 -95 147 -110 -28 -18 -224 -8
-424 20 -193 28 -205 31 -349 90 -93 38 -166 75 -195 99 -89 72 -293 277 -311
312 -73 145 -130 475 -130 756 0 75 -2 84 -21 95 -43 23 -61 0 -111 -137 -25
-71 -55 -176 -66 -234 -28 -142 -176 -765 -207 -866 -62 -203 -74 -212 -250
-195 -66 6 -250 11 -409 11 -255 0 -292 2 -308 17 -10 9 -18 22 -18 29 0 7 25
95 56 196 31 100 77 264 103 363 27 99 82 304 124 455 42 151 89 331 106 400
16 69 57 214 91 322 33 109 94 327 136 485 41 159 101 374 133 478 33 105 67
229 75 277 9 48 36 152 60 230 24 79 63 220 87 313 31 123 50 176 66 193 l22
22 414 0 c328 0 417 -3 431 -13z m15558 -234 l22 -23 -44 -46 c-25 -25 -146
-141 -270 -257 -309 -289 -429 -407 -446 -439 -30 -56 -13 -141 111 -553 66
-222 86 -298 130 -512 20 -92 43 -187 51 -210 18 -45 12 -78 -15 -92 -10 -6
-146 -11 -304 -13 -244 -3 -288 -1 -301 12 -13 13 -75 322 -141 695 -22 125
-41 175 -68 175 -22 0 -343 -311 -377 -365 -10 -16 -35 -111 -55 -210 -40
-196 -69 -274 -110 -301 -23 -15 -33 -16 -73 -5 -31 8 -100 10 -207 7 -137 -4
-162 -3 -177 11 -38 35 -21 137 91 540 100 361 119 437 176 703 26 118 62 262
81 320 19 58 49 182 68 275 39 191 68 280 98 296 14 8 33 7 69 -1 34 -8 88
-10 167 -5 80 5 137 3 180 -5 79 -16 84 -31 53 -150 -12 -47 -35 -146 -50
-220 -16 -74 -41 -169 -56 -210 -33 -90 -39 -122 -31 -154 14 -57 61 -39 113
42 20 31 132 154 249 272 298 300 348 352 365 376 43 63 103 72 466 70 206 -1
213 -2 235 -23z m-11746 2 c32 -7 36 -30 13 -88 -24 -63 -115 -425 -164 -655
-20 -92 -42 -173 -49 -180 -17 -17 -618 -5 -643 13 -15 11 -14 20 6 111 73
319 182 771 190 784 7 12 43 16 197 20 193 5 412 2 450 -5z m915 -5 c27 -15
25 -35 -21 -205 -75 -277 -120 -464 -120 -500 0 -55 25 -57 69 -4 129 157 617
655 686 700 28 18 50 19 305 19 286 0 315 -3 324 -26 9 -24 -4 -42 -53 -74
-49 -31 -145 -126 -196 -193 -16 -22 -56 -57 -89 -80 -73 -49 -379 -357 -401
-403 -8 -18 -15 -46 -15 -63 0 -34 48 -206 85 -304 13 -36 31 -104 40 -153 9
-48 21 -99 27 -113 5 -14 34 -134 64 -266 61 -269 66 -285 92 -285 28 0 44 22
117 170 37 74 91 169 120 211 29 42 74 118 100 170 26 52 87 160 136 240 48
80 106 186 128 234 23 48 65 127 95 174 79 127 168 284 225 400 59 119 163
286 198 319 24 22 29 22 279 22 301 0 294 3 294 -102 0 -35 5 -92 10 -128 9
-57 17 -157 60 -690 5 -69 14 -273 20 -455 6 -181 15 -370 20 -420 16 -146 13
-262 -6 -269 -9 -3 -120 -6 -248 -6 -178 0 -236 3 -250 13 -16 12 -19 33 -24
161 -4 134 -7 148 -26 161 -17 12 -70 15 -293 15 -149 0 -282 -4 -295 -9 -18
-7 -39 -43 -87 -148 -35 -76 -74 -149 -88 -163 l-24 -25 -517 3 c-284 2 -525
6 -535 8 -27 8 -34 30 -77 236 -44 206 -64 339 -75 483 -9 106 -17 127 -50
123 -31 -4 -341 -291 -365 -338 -11 -21 -29 -73 -40 -116 -76 -287 -93 -340
-112 -356 -18 -16 -44 -18 -222 -18 -141 0 -208 4 -226 13 -37 19 -36 65 3
192 51 163 129 459 191 728 31 131 69 281 85 335 52 168 120 431 157 602 19
90 40 170 46 177 13 16 449 19 479 3z m5475 -42 c14 -14 15 -35 5 -194 -5 -99
-10 -206 -10 -239 0 -33 -4 -188 -9 -345 -7 -215 -6 -298 3 -338 15 -63 20
-69 40 -52 18 15 31 43 82 180 19 52 73 172 120 265 47 94 121 253 165 355 97
223 149 329 175 352 32 29 92 49 151 50 179 2 523 -16 539 -28 17 -12 16 -17
-9 -91 -15 -43 -41 -148 -58 -233 -41 -202 -89 -405 -201 -840 -50 -195 -119
-469 -154 -608 -69 -279 -76 -292 -150 -311 -64 -16 -325 -3 -333 17 -12 32
32 241 103 489 40 142 78 290 84 328 6 39 33 151 59 250 57 209 91 361 94 425
3 42 1 45 -24 48 -24 3 -28 -1 -34 -35 -14 -77 -78 -243 -161 -418 -47 -99
-101 -216 -120 -260 -19 -44 -88 -190 -153 -325 -65 -135 -135 -290 -155 -345
-47 -126 -60 -152 -85 -165 -33 -18 -336 -1 -362 19 -18 15 -20 28 -19 192 1
96 6 200 11 230 5 29 14 241 20 469 5 228 15 445 20 482 14 93 13 153 -4 167
-22 18 -44 2 -50 -37 -19 -111 -122 -560 -150 -656 -18 -61 -38 -146 -45 -188
-7 -42 -29 -134 -50 -205 -21 -70 -41 -148 -45 -173 -4 -25 -20 -88 -36 -140
-46 -151 -70 -164 -273 -154 -122 6 -139 9 -152 27 -20 29 -13 73 66 377 37
146 88 351 113 455 25 105 89 354 141 555 52 201 107 421 121 490 27 131 41
165 77 180 12 5 81 13 152 17 166 10 476 -14 501 -39z m3228 36 c29 -28 20
-80 -69 -410 -36 -131 -86 -340 -111 -463 -25 -123 -63 -274 -84 -335 -21 -61
-50 -155 -64 -210 -14 -54 -40 -124 -56 -155 -75 -138 -252 -354 -355 -432
-65 -49 -249 -124 -342 -140 -37 -6 -151 -11 -253 -12 -169 0 -193 2 -281 25
-182 49 -234 86 -322 231 -59 97 -81 182 -81 312 1 101 9 144 98 545 53 239
119 514 145 610 27 96 58 213 69 260 11 47 27 101 36 121 l15 36 223 7 c242 8
278 3 278 -36 0 -12 -58 -261 -129 -553 -71 -291 -144 -595 -162 -675 l-32
-144 16 -66 c20 -77 59 -136 107 -165 29 -16 52 -20 130 -20 82 0 103 4 154
28 78 36 136 84 175 146 41 64 139 388 181 601 17 85 48 220 70 300 45 167 82
332 100 440 14 86 32 123 69 141 17 9 90 15 206 19 99 4 197 7 217 8 22 1 43
-4 52 -14z m-10360 -3 c6 -9 -93 -455 -158 -711 -31 -118 -51 -179 -63 -188
-15 -11 -147 -13 -758 -10 -740 3 -740 3 -835 -20 -67 -16 -119 -36 -180 -71
-47 -27 -103 -58 -125 -69 -53 -26 -226 -207 -318 -330 -84 -113 -123 -193
-170 -352 -75 -249 -90 -336 -95 -557 -5 -236 8 -355 54 -505 4 -13 0 -18 -15
-18 -13 0 -31 19 -56 59 -69 114 -102 204 -156 426 l-54 220 0 205 c0 226 15
338 61 464 15 39 39 112 54 163 43 141 167 363 254 453 34 36 97 105 140 153
43 48 106 109 140 134 33 26 77 64 98 84 44 45 247 179 338 223 36 18 97 51
137 75 39 23 98 49 130 57 32 9 101 36 153 61 52 26 111 50 130 54 50 10 1288
11 1294 0z m5387 -11 c21 -12 25 -46 9 -100 -6 -19 -55 -219 -111 -445 -55
-225 -111 -446 -124 -491 -13 -44 -34 -128 -45 -187 -11 -59 -34 -149 -50
-201 -52 -170 -62 -166 389 -166 203 0 360 -4 375 -10 32 -12 33 -40 7 -125
-10 -33 -31 -118 -47 -189 -18 -85 -34 -136 -47 -149 -18 -18 -32 -18 -270
-12 -139 3 -432 9 -652 13 -220 4 -406 11 -412 15 -20 13 -15 68 11 154 45
144 134 477 146 548 16 96 58 257 86 330 22 60 100 380 189 780 26 116 54 218
63 228 14 15 38 17 239 17 136 0 232 -4 244 -10z m-6291 -1055 c305 -2 643 -9
750 -14 107 -6 279 -10 382 -11 208 0 238 -6 238 -46 0 -59 -191 -849 -209
-867 -7 -7 -124 -9 -315 -8 -327 2 -381 -3 -395 -42 -5 -12 -12 -51 -16 -87
-14 -134 -119 -508 -185 -662 -111 -259 -297 -466 -518 -577 -138 -70 -539
-144 -616 -115 -29 11 -17 33 56 101 91 87 150 176 254 388 70 143 89 192 118
310 70 280 128 552 133 622 6 72 6 73 -21 83 -17 6 -148 10 -335 10 -323 0
-331 1 -331 45 0 31 72 357 138 625 69 280 55 263 212 255 58 -3 355 -8 660
-10z m7888 -1558 c4 -50 -19 -77 -64 -77 -48 0 -70 51 -43 101 8 16 19 19 57
17 47 -3 47 -3 50 -41z m232 28 c14 -17 7 -69 -11 -92 -6 -7 -28 -13 -48 -13
-66 0 -81 42 -32 91 32 32 71 38 91 14z m4261 -3 c45 -37 20 -114 -42 -127
-65 -14 -94 25 -64 88 25 54 68 69 106 39z m-10386 -152 c138 -22 159 -36 171
-116 20 -133 -25 -265 -119 -350 -84 -75 -83 -75 -239 -85 -116 -7 -145 -12
-155 -26 -7 -9 -31 -75 -54 -147 -56 -176 -55 -173 -83 -192 -33 -21 -73 -11
-88 21 -9 21 -4 53 32 188 23 89 59 239 80 332 42 196 93 352 122 378 28 24
175 23 333 -3z m907 -30 c13 -17 15 -26 6 -51 -5 -16 -18 -34 -28 -39 -10 -6
-95 -10 -188 -10 -93 0 -183 -3 -200 -6 -34 -7 -39 -17 -67 -127 -15 -60 -16
-70 -3 -83 10 -10 63 -19 164 -29 82 -8 157 -15 166 -15 42 0 26 -94 -19 -111
-13 -5 -94 -9 -178 -9 -146 0 -155 -1 -179 -22 -28 -26 -66 -136 -69 -197 -2
-72 7 -75 211 -79 101 -2 182 -8 190 -14 19 -16 14 -66 -8 -88 -19 -19 -33
-20 -272 -20 -139 0 -263 3 -275 6 -32 9 -30 54 8 200 17 66 55 220 85 344 30
124 64 254 75 288 31 94 31 94 324 88 228 -5 241 -6 257 -26z m663 -10 c39
-24 75 -91 75 -141 0 -104 -50 -201 -152 -301 -77 -74 -80 -79 -75 -115 2 -21
16 -69 30 -108 14 -38 29 -101 33 -139 8 -80 -3 -96 -68 -96 -53 0 -69 20
-112 146 -69 197 -76 214 -109 230 -39 21 -93 22 -111 3 -15 -14 -60 -150 -91
-274 -10 -38 -25 -78 -33 -87 -18 -21 -71 -24 -97 -4 -18 13 -17 19 19 179 20
92 68 285 106 429 39 145 70 266 70 270 0 4 8 14 17 24 16 15 38 16 241 11
203 -5 226 -8 257 -27z m686 7 c40 -17 92 -66 117 -111 26 -48 23 -236 -7
-341 -30 -107 -134 -306 -187 -360 -69 -69 -98 -78 -320 -104 -139 -17 -186
-14 -212 9 -39 36 -38 64 7 235 23 88 66 259 96 380 77 306 73 295 98 306 35
15 366 4 408 -14z m714 2 c88 -5 165 -15 172 -21 18 -14 16 -69 -2 -95 -22
-31 -52 -34 -224 -24 -103 6 -162 6 -177 -1 -28 -13 -41 -43 -56 -130 -16 -98
-16 -98 178 -98 147 0 154 -1 168 -22 22 -31 20 -52 -9 -86 l-25 -30 -174 -4
c-152 -3 -177 -6 -195 -22 -47 -42 -81 -227 -47 -255 10 -9 36 -10 85 -5 71 7
244 -9 289 -27 23 -9 28 -32 16 -76 -11 -41 -58 -46 -324 -37 -216 8 -244 11
-254 27 -9 14 12 108 96 444 60 234 115 437 123 450 14 21 22 23 108 23 51 0
164 -5 252 -11z m1084 -27 c47 -35 64 -67 64 -125 0 -74 -51 -170 -111 -210
-61 -41 -76 -75 -69 -160 6 -65 18 -97 38 -97 5 0 23 16 40 35 26 28 39 35 71
35 37 0 38 -1 38 -34 0 -19 -13 -59 -29 -90 -32 -59 -31 -89 3 -138 41 -58 -3
-148 -73 -148 -28 0 -47 9 -79 35 l-41 36 -72 -38 c-69 -36 -78 -38 -163 -38
-110 0 -146 17 -190 88 -44 72 -46 135 -7 222 43 94 73 130 138 167 84 48 95
71 87 195 -6 97 -5 105 20 156 30 62 81 103 154 124 59 16 149 9 181 -15z
m1954 -18 c51 -14 101 -31 113 -39 36 -23 86 -141 91 -214 6 -85 -42 -286 -91
-386 -62 -125 -189 -252 -293 -291 -71 -28 -242 -26 -298 3 -59 31 -100 82
-124 155 -17 50 -15 194 3 244 7 22 19 73 25 113 16 104 50 162 160 274 101
104 143 132 226 153 72 18 86 17 188 -12z m838 -25 c93 -47 121 -212 43 -248
-36 -16 -75 7 -124 74 -22 30 -50 57 -63 60 -29 7 -165 -10 -180 -24 -7 -5
-19 -34 -26 -62 -13 -51 -13 -53 10 -72 13 -11 62 -38 109 -60 220 -103 207
-94 231 -144 21 -43 22 -50 10 -102 -7 -31 -16 -79 -20 -106 -12 -94 -95 -188
-198 -225 -35 -13 -68 -29 -75 -37 -8 -10 -11 -40 -10 -82 3 -55 0 -71 -17
-93 -32 -40 -97 -67 -171 -70 -60 -3 -65 -1 -68 18 -3 20 2 22 69 26 55 3 74
8 85 23 31 42 25 52 -148 210 -71 65 -84 93 -95 197 -6 56 -5 57 28 77 66 40
129 17 129 -46 0 -41 49 -102 91 -114 98 -30 239 62 239 156 0 52 -32 91 -95
114 -30 12 -61 21 -68 21 -23 0 -114 59 -140 90 -57 67 -60 179 -8 284 46 94
72 113 202 151 110 31 115 32 168 18 30 -8 72 -23 92 -34z m-1605 5 c83 -41
97 -69 102 -208 7 -193 -27 -325 -125 -488 -86 -144 -136 -181 -287 -212 -90
-18 -278 -21 -325 -5 -18 6 -33 20 -36 32 -3 12 14 105 39 207 25 102 68 286
95 410 28 124 57 236 64 249 23 45 57 52 243 48 165 -4 174 -6 230 -33z m2458
-10 c22 -22 20 -70 -4 -94 -18 -18 -33 -20 -198 -20 -153 0 -182 -3 -212 -18
-42 -23 -66 -69 -75 -143 -10 -84 -8 -85 187 -91 90 -3 171 -9 180 -13 26 -10
31 -40 14 -74 -30 -57 -45 -61 -223 -61 -198 0 -208 -3 -229 -79 -8 -31 -20
-69 -25 -85 -13 -40 -11 -90 3 -104 8 -8 61 -12 173 -12 88 0 177 -5 198 -11
35 -9 37 -12 37 -49 0 -31 -6 -43 -32 -65 -30 -26 -36 -27 -98 -21 -36 4 -150
10 -255 14 -104 4 -196 11 -202 15 -7 5 -13 24 -13 43 0 47 40 224 89 387 21
73 44 168 51 210 16 107 55 245 76 268 16 18 34 19 280 19 225 0 265 -2 278
-16z m391 -9 c31 -30 31 -37 8 -338 -15 -209 -15 -229 -1 -244 23 -22 45 -10
53 28 6 27 114 269 222 497 31 66 60 82 150 82 89 0 117 -17 110 -69 -2 -20
-43 -184 -91 -366 -48 -181 -97 -365 -108 -408 -25 -95 -43 -120 -87 -119 -47
1 -64 19 -59 61 3 20 33 135 67 256 68 239 83 322 61 335 -19 12 -50 -7 -50
-29 0 -10 -36 -94 -81 -187 -45 -93 -101 -218 -125 -278 -56 -140 -71 -156
-141 -156 -76 0 -76 0 -64 315 13 311 13 316 2 334 -6 10 -13 11 -27 3 -13 -7
-24 -34 -35 -89 -18 -89 -87 -409 -101 -467 -13 -53 -48 -86 -92 -86 -39 0
-56 20 -56 64 0 14 31 137 69 273 37 137 85 320 106 408 47 203 49 205 162
205 76 0 86 -2 108 -25z m1183 17 c98 -7 112 -15 112 -60 0 -13 -13 -37 -29
-53 l-29 -29 -182 0 c-218 0 -232 -4 -255 -82 -8 -28 -15 -71 -15 -95 0 -58
15 -63 191 -63 78 0 149 -5 160 -10 14 -8 19 -21 19 -48 -1 -80 -31 -92 -230
-92 -156 0 -162 -1 -185 -24 -29 -29 -44 -79 -52 -175 -8 -102 -10 -101 194
-101 150 0 165 -2 183 -20 23 -23 24 -35 9 -79 -16 -46 -43 -53 -157 -40 -53
5 -166 9 -250 7 -134 -3 -155 -1 -163 13 -16 30 8 199 51 349 22 80 48 185 56
234 9 50 22 106 29 125 13 34 30 91 55 189 7 29 18 46 33 52 25 10 318 11 455
2z m384 -19 c26 -23 23 -46 -26 -237 -24 -94 -47 -193 -51 -220 -4 -27 -24
-104 -46 -171 -44 -139 -47 -160 -20 -175 11 -5 84 -10 166 -10 82 0 155 -5
166 -10 14 -8 19 -21 19 -53 0 -83 -13 -87 -269 -87 -204 0 -256 6 -273 33
-14 21 -8 60 21 162 16 55 48 190 71 300 24 110 53 220 65 245 19 39 30 76 51
178 11 55 85 82 126 45z m658 -3 c22 -11 40 -26 40 -33 0 -7 -20 -82 -44 -167
-63 -219 -153 -555 -167 -620 -15 -71 -35 -105 -74 -126 -36 -19 -79 -13 -89
11 -6 16 57 274 116 475 16 58 47 183 68 279 46 213 58 228 150 181z m290 5
c41 -21 45 -48 21 -141 -35 -140 -39 -234 -9 -234 6 0 88 76 182 169 94 92
185 175 203 185 39 20 112 21 138 2 18 -13 18 -15 2 -39 -9 -14 -61 -64 -115
-110 -202 -174 -212 -199 -156 -377 111 -350 118 -381 85 -421 -23 -29 -85
-32 -124 -6 -29 18 -64 118 -107 299 -29 118 -31 122 -67 126 -23 2 -42 -7
-81 -38 -62 -48 -80 -81 -133 -245 -31 -95 -46 -129 -65 -141 -32 -21 -72 -11
-84 22 -17 43 -11 85 29 219 21 72 44 164 51 205 21 127 132 500 156 525 19
19 37 19 74 0z"/>
<path d="M9202 14293 c-16 -6 -322 -616 -322 -642 0 -41 25 -51 128 -51 53 0
117 -5 141 -11 53 -12 92 1 111 36 11 20 11 52 2 163 -15 175 -15 324 -1 412
15 88 -3 116 -59 93z"/>
<path d="M6377 11988 c-27 -21 -49 -88 -54 -168 -7 -95 2 -105 96 -105 54 0
74 5 113 28 77 45 130 143 109 201 -16 41 -59 56 -159 56 -55 0 -94 -5 -105
-12z"/>
<path d="M7797 11968 c-39 -39 -62 -203 -32 -228 9 -7 53 -12 118 -13 86 -1
109 2 137 19 48 28 70 62 76 120 6 47 4 54 -24 85 l-30 34 -111 3 c-105 4
-111 3 -134 -20z"/>
<path d="M8572 11953 c-16 -14 -38 -83 -91 -288 -89 -347 -84 -321 -65 -339
12 -12 37 -16 105 -16 139 0 177 26 253 179 98 194 101 416 6 463 -49 25 -180
25 -208 1z"/>
<path d="M10480 11975 c-31 -33 -40 -123 -16 -160 24 -37 57 -32 100 15 19 22
38 50 41 63 10 37 -11 76 -50 92 -45 20 -48 19 -75 -10z"/>
<path d="M10313 11558 c-11 -13 -39 -56 -61 -95 l-41 -73 13 -51 c18 -68 36
-84 95 -84 35 0 58 7 90 28 65 43 68 60 31 153 -57 143 -84 169 -127 122z"/>
<path d="M12437 11919 c-96 -23 -150 -71 -199 -176 -30 -64 -68 -221 -68 -285
0 -157 87 -249 205 -214 55 17 124 65 159 111 71 93 153 323 141 399 -8 54
-53 135 -85 151 -36 18 -108 25 -153 14z"/>
<path d="M11501 11889 c-6 -13 -27 -103 -46 -199 -19 -96 -47 -228 -62 -293
-32 -140 -34 -137 77 -137 95 0 140 20 202 89 41 46 52 68 87 179 57 184 62
206 55 254 -8 60 -21 92 -45 106 -12 8 -71 16 -139 19 -119 6 -119 6 -129 -18z"/>
</g>
</svg>
